<svg width="200" height="280" viewBox="0 0 200 280" fill="none" xmlns="http://www.w3.org/2000/svg">
  <!-- Background -->
  <rect width="200" height="280" fill="white"/>
  <rect width="200" height="280" fill="#F8FAFC"/>
  
  <!-- Header -->
  <rect x="20" y="20" width="160" height="12" rx="6" fill="#1E40AF"/>
  <rect x="20" y="37" width="120" height="6" rx="3" fill="#60A5FA"/>
  <rect x="20" y="48" width="90" height="5" rx="2.5" fill="#93C5FD"/>
  
  <!-- Education section (prominent) -->
  <rect x="20" y="70" width="70" height="8" rx="4" fill="#1E40AF"/>
  <rect x="20" y="85" width="160" height="4" rx="2" fill="#CBD5E1"/>
  <rect x="20" y="92" width="155" height="4" rx="2" fill="#CBD5E1"/>
  <rect x="20" y="99" width="150" height="4" rx="2" fill="#CBD5E1"/>
  <rect x="20" y="106" width="145" height="4" rx="2" fill="#CBD5E1"/>
  
  <!-- Research section -->
  <rect x="20" y="125" width="65" height="8" rx="4" fill="#1E40AF"/>
  <rect x="20" y="140" width="160" height="4" rx="2" fill="#CBD5E1"/>
  <rect x="20" y="147" width="155" height="4" rx="2" fill="#CBD5E1"/>
  <rect x="20" y="154" width="150" height="4" rx="2" fill="#CBD5E1"/>
  
  <!-- Publications section -->
  <rect x="20" y="173" width="80" height="8" rx="4" fill="#1E40AF"/>
  <rect x="20" y="188" width="160" height="3" rx="1.5" fill="#CBD5E1"/>
  <rect x="20" y="194" width="155" height="3" rx="1.5" fill="#CBD5E1"/>
  <rect x="25" y="200" width="150" height="3" rx="1.5" fill="#E0E7FF"/>
  
  <rect x="20" y="210" width="160" height="3" rx="1.5" fill="#CBD5E1"/>
  <rect x="20" y="216" width="155" height="3" rx="1.5" fill="#CBD5E1"/>
  <rect x="25" y="222" width="150" height="3" rx="1.5" fill="#E0E7FF"/>
  
  <rect x="20" y="232" width="160" height="3" rx="1.5" fill="#CBD5E1"/>
  <rect x="20" y="238" width="155" height="3" rx="1.5" fill="#CBD5E1"/>
  <rect x="25" y="244" width="150" height="3" rx="1.5" fill="#E0E7FF"/>
  
  <!-- Border -->
  <rect x="0.5" y="0.5" width="199" height="279" stroke="#E2E8F0" fill="none"/>
</svg>
