<svg width="200" height="280" viewBox="0 0 200 280" fill="none" xmlns="http://www.w3.org/2000/svg">
  <!-- Background -->
  <rect width="200" height="280" fill="white"/>
  
  <!-- Purple gradient header -->
  <defs>
    <linearGradient id="purpleGrad" x1="0%" y1="0%" x2="100%" y2="100%">
      <stop offset="0%" style="stop-color:#A855F7;stop-opacity:1" />
      <stop offset="100%" style="stop-color:#7C3AED;stop-opacity:1" />
    </linearGradient>
  </defs>
  
  <!-- Two column layout -->
  <rect width="70" height="280" fill="#F3E8FF"/>
  
  <!-- Left sidebar -->
  <circle cx="35" cy="35" r="20" fill="url(#purpleGrad)"/>
  <rect x="15" y="65" width="40" height="5" rx="2.5" fill="#A855F7"/>
  <rect x="15" y="75" width="35" height="4" rx="2" fill="#C4B5FD"/>
  
  <rect x="15" y="95" width="40" height="6" rx="3" fill="#7C3AED"/>
  <rect x="15" y="107" width="40" height="3" rx="1.5" fill="#C4B5FD"/>
  <rect x="15" y="113" width="35" height="3" rx="1.5" fill="#C4B5FD"/>
  <rect x="15" y="119" width="38" height="3" rx="1.5" fill="#C4B5FD"/>
  
  <rect x="15" y="135" width="40" height="6" rx="3" fill="#7C3AED"/>
  <rect x="15" y="147" width="25" height="3" rx="1.5" fill="#C4B5FD"/>
  <rect x="15" y="153" width="30" height="3" rx="1.5" fill="#C4B5FD"/>
  <rect x="15" y="159" width="28" height="3" rx="1.5" fill="#C4B5FD"/>
  
  <!-- Right content -->
  <rect x="85" y="20" width="95" height="10" rx="5" fill="#A855F7"/>
  <rect x="85" y="35" width="70" height="5" rx="2.5" fill="#C4B5FD"/>
  
  <rect x="85" y="55" width="95" height="7" rx="3.5" fill="#1E293B"/>
  <rect x="85" y="68" width="95" height="3" rx="1.5" fill="#CBD5E1"/>
  <rect x="85" y="74" width="90" height="3" rx="1.5" fill="#CBD5E1"/>
  <rect x="85" y="80" width="85" height="3" rx="1.5" fill="#CBD5E1"/>
  
  <rect x="85" y="95" width="95" height="7" rx="3.5" fill="#1E293B"/>
  <rect x="85" y="108" width="95" height="3" rx="1.5" fill="#CBD5E1"/>
  <rect x="85" y="114" width="88" height="3" rx="1.5" fill="#CBD5E1"/>
  <rect x="85" y="120" width="92" height="3" rx="1.5" fill="#CBD5E1"/>
  
  <rect x="85" y="135" width="95" height="7" rx="3.5" fill="#1E293B"/>
  <rect x="85" y="148" width="95" height="3" rx="1.5" fill="#CBD5E1"/>
  <rect x="85" y="154" width="90" height="3" rx="1.5" fill="#CBD5E1"/>
  
  <!-- Portfolio items -->
  <rect x="85" y="175" width="42" height="35" rx="4" fill="#E9D5FF"/>
  <rect x="132" y="175" width="42" height="35" rx="4" fill="#E9D5FF"/>
  <rect x="85" y="215" width="42" height="35" rx="4" fill="#E9D5FF"/>
  <rect x="132" y="215" width="42" height="35" rx="4" fill="#E9D5FF"/>
  
  <!-- Border -->
  <rect x="0.5" y="0.5" width="199" height="279" stroke="#E2E8F0" fill="none"/>
</svg>
