<svg width="300" height="400" xmlns="http://www.w3.org/2000/svg">
  <rect width="100%" height="100%" fill="#f8f9fa"/>
  <rect x="20" y="20" width="260" height="60" fill="#e9ecef"/>
  <circle cx="40" cy="40" r="15" fill="#6c757d"/>
  <rect x="65" y="25" width="120" height="15" fill="#6c757d"/>
  <rect x="65" y="45" width="80" height="10" fill="#adb5bd"/>
  
  <rect x="20" y="100" width="260" height="1" fill="#dee2e6"/>
  
  <rect x="20" y="120" width="100" height="15" fill="#495057"/>
  <rect x="20" y="145" width="200" height="10" fill="#6c757d"/>
  <rect x="20" y="160" width="180" height="10" fill="#6c757d"/>
  
  <rect x="20" y="190" width="100" height="15" fill="#495057"/>
  <rect x="20" y="215" width="200" height="10" fill="#6c757d"/>
  <rect x="20" y="230" width="180" height="10" fill="#6c757d"/>
  
  <rect x="20" y="260" width="100" height="15" fill="#495057"/>
  <rect x="20" y="285" width="200" height="10" fill="#6c757d"/>
  <rect x="20" y="300" width="180" height="10" fill="#6c757d"/>
  
  <rect x="20" y="330" width="120" height="25" fill="#6f42c1" rx="4"/>
  <text x="80" y="347" font-family="Arial" font-size="12" fill="white" text-anchor="middle">First Job Starter</text>
</svg>