<svg width="200" height="280" viewBox="0 0 200 280" fill="none" xmlns="http://www.w3.org/2000/svg">
  <!-- Background -->
  <rect width="200" height="280" fill="white"/>
  
  <!-- Minimal header -->
  <rect x="20" y="20" width="160" height="10" rx="5" fill="#1E293B"/>
  <rect x="20" y="35" width="100" height="5" rx="2.5" fill="#64748B"/>
  <line x1="20" y1="50" x2="180" y2="50" stroke="#E2E8F0" stroke-width="1"/>
  
  <!-- Content sections with minimal styling -->
  <rect x="20" y="65" width="60" height="7" rx="3.5" fill="#1E293B"/>
  <rect x="20" y="80" width="160" height="3" rx="1.5" fill="#94A3B8"/>
  <rect x="20" y="87" width="155" height="3" rx="1.5" fill="#94A3B8"/>
  <rect x="20" y="94" width="150" height="3" rx="1.5" fill="#94A3B8"/>
  <rect x="20" y="101" width="145" height="3" rx="1.5" fill="#94A3B8"/>
  
  <rect x="20" y="120" width="70" height="7" rx="3.5" fill="#1E293B"/>
  <rect x="20" y="135" width="160" height="3" rx="1.5" fill="#94A3B8"/>
  <rect x="20" y="142" width="155" height="3" rx="1.5" fill="#94A3B8"/>
  <rect x="20" y="149" width="150" height="3" rx="1.5" fill="#94A3B8"/>
  
  <rect x="20" y="168" width="55" height="7" rx="3.5" fill="#1E293B"/>
  <rect x="20" y="183" width="160" height="3" rx="1.5" fill="#94A3B8"/>
  <rect x="20" y="190" width="155" height="3" rx="1.5" fill="#94A3B8"/>
  
  <rect x="20" y="209" width="45" height="7" rx="3.5" fill="#1E293B"/>
  <rect x="20" y="224" width="70" height="3" rx="1.5" fill="#94A3B8"/>
  <rect x="95" y="224" width="70" height="3" rx="1.5" fill="#94A3B8"/>
  <rect x="20" y="231" width="70" height="3" rx="1.5" fill="#94A3B8"/>
  <rect x="95" y="231" width="70" height="3" rx="1.5" fill="#94A3B8"/>
  
  <!-- Bottom line -->
  <line x1="20" y1="260" x2="180" y2="260" stroke="#E2E8F0" stroke-width="1"/>
  
  <!-- Border -->
  <rect x="0.5" y="0.5" width="199" height="279" stroke="#E2E8F0" fill="none"/>
</svg>
