<svg width="200" height="280" viewBox="0 0 200 280" fill="none" xmlns="http://www.w3.org/2000/svg">
  <!-- Background -->
  <rect width="200" height="280" fill="white"/>
  <rect width="200" height="280" fill="#F8FAFC"/>
  
  <!-- Header with blue accent -->
  <rect width="200" height="60" fill="#3B82F6"/>
  <rect x="20" y="15" width="160" height="8" rx="4" fill="white" opacity="0.9"/>
  <rect x="20" y="30" width="120" height="6" rx="3" fill="white" opacity="0.7"/>
  <rect x="20" y="42" width="100" height="5" rx="2.5" fill="white" opacity="0.6"/>
  
  <!-- Content sections -->
  <rect x="20" y="80" width="80" height="8" rx="4" fill="#1E293B"/>
  <rect x="20" y="95" width="160" height="4" rx="2" fill="#CBD5E1"/>
  <rect x="20" y="103" width="150" height="4" rx="2" fill="#CBD5E1"/>
  <rect x="20" y="111" width="140" height="4" rx="2" fill="#CBD5E1"/>
  
  <rect x="20" y="130" width="70" height="8" rx="4" fill="#1E293B"/>
  <rect x="20" y="145" width="160" height="4" rx="2" fill="#CBD5E1"/>
  <rect x="20" y="153" width="155" height="4" rx="2" fill="#CBD5E1"/>
  <rect x="20" y="161" width="145" height="4" rx="2" fill="#CBD5E1"/>
  
  <rect x="20" y="180" width="65" height="8" rx="4" fill="#1E293B"/>
  <rect x="20" y="195" width="160" height="4" rx="2" fill="#CBD5E1"/>
  <rect x="20" y="203" width="150" height="4" rx="2" fill="#CBD5E1"/>
  
  <rect x="20" y="220" width="50" height="8" rx="4" fill="#1E293B"/>
  <rect x="20" y="235" width="70" height="4" rx="2" fill="#CBD5E1"/>
  <rect x="95" y="235" width="70" height="4" rx="2" fill="#CBD5E1"/>
  <rect x="20" y="243" width="70" height="4" rx="2" fill="#CBD5E1"/>
  <rect x="95" y="243" width="70" height="4" rx="2" fill="#CBD5E1"/>
  
  <!-- Border -->
  <rect x="0.5" y="0.5" width="199" height="279" stroke="#E2E8F0" fill="none"/>
</svg>
