<svg width="600" height="800" xmlns="http://www.w3.org/2000/svg">
  <rect width="600" height="800" fill="#EFF6FF"/>
  <g transform="translate(50,40)">
    <rect x="0" y="0" width="500" height="720" rx="8" fill="#FFFFFF" stroke="#DBEAFE"/>
    <!-- Accent bar (blue) -->
    <rect x="0" y="0" width="500" height="60" rx="8" fill="#2563EB"/>
    <rect x="24" y="84" width="320" height="16" rx="4" fill="#BFDBFE"/>
    <rect x="24" y="110" width="180" height="10" rx="4" fill="#E5F0FF"/>
    <rect x="214" y="110" width="140" height="10" rx="4" fill="#E5F0FF"/>

    <rect x="24" y="150" width="120" height="12" rx="4" fill="#BFDBFE"/>
    <rect x="24" y="172" width="452" height="10" rx="4" fill="#E5F0FF"/>
    <rect x="24" y="188" width="420" height="10" rx="4" fill="#E5F0FF"/>

    <rect x="24" y="228" width="140" height="12" rx="4" fill="#BFDBFE"/>
    <rect x="24" y="252" width="420" height="8" rx="4" fill="#E5F0FF"/>
    <rect x="24" y="266" width="380" height="8" rx="4" fill="#E5F0FF"/>

    <rect x="24" y="306" width="140" height="12" rx="4" fill="#BFDBFE"/>
    <rect x="24" y="330" width="300" height="10" rx="4" fill="#E5F0FF"/>
  </g>
</svg>
