<svg width="200" height="280" viewBox="0 0 200 280" fill="none" xmlns="http://www.w3.org/2000/svg">
  <!-- Background -->
  <rect width="200" height="280" fill="white"/>
  <rect width="200" height="280" fill="#F0FDF4"/>
  
  <!-- Two column layout -->
  <rect width="65" height="280" fill="#DCFCE7"/>
  
  <!-- Left sidebar -->
  <rect x="15" y="20" width="35" height="7" rx="3.5" fill="#16A34A"/>
  <rect x="15" y="32" width="35" height="3" rx="1.5" fill="#4ADE80"/>
  <rect x="15" y="38" width="30" height="3" rx="1.5" fill="#4ADE80"/>
  
  <rect x="15" y="55" width="35" height="6" rx="3" fill="#16A34A"/>
  <rect x="15" y="66" width="35" height="3" rx="1.5" fill="#86EFAC"/>
  <rect x="15" y="72" width="30" height="3" rx="1.5" fill="#86EFAC"/>
  <rect x="15" y="78" width="32" height="3" rx="1.5" fill="#86EFAC"/>
  <rect x="15" y="84" width="28" height="3" rx="1.5" fill="#86EFAC"/>
  
  <rect x="15" y="100" width="35" height="6" rx="3" fill="#16A34A"/>
  <rect x="15" y="111" width="35" height="3" rx="1.5" fill="#86EFAC"/>
  <rect x="15" y="117" width="30" height="3" rx="1.5" fill="#86EFAC"/>
  <rect x="15" y="123" width="32" height="3" rx="1.5" fill="#86EFAC"/>
  
  <!-- Right content -->
  <rect x="80" y="20" width="100" height="9" rx="4.5" fill="#1E293B"/>
  <rect x="80" y="34" width="75" height="5" rx="2.5" fill="#64748B"/>
  
  <rect x="80" y="50" width="100" height="7" rx="3.5" fill="#16A34A"/>
  <rect x="80" y="62" width="100" height="3" rx="1.5" fill="#CBD5E1"/>
  <rect x="80" y="68" width="95" height="3" rx="1.5" fill="#CBD5E1"/>
  <rect x="80" y="74" width="90" height="3" rx="1.5" fill="#CBD5E1"/>
  
  <rect x="80" y="90" width="100" height="7" rx="3.5" fill="#16A34A"/>
  <rect x="80" y="102" width="100" height="3" rx="1.5" fill="#CBD5E1"/>
  <rect x="80" y="108" width="95" height="3" rx="1.5" fill="#CBD5E1"/>
  <rect x="80" y="114" width="92" height="3" rx="1.5" fill="#CBD5E1"/>
  
  <!-- Projects section -->
  <rect x="80" y="135" width="100" height="7" rx="3.5" fill="#16A34A"/>
  
  <rect x="80" y="150" width="100" height="30" rx="4" fill="#DCFCE7"/>
  <rect x="85" y="155" width="50" height="4" rx="2" fill="#16A34A"/>
  <rect x="85" y="162" width="90" height="2" rx="1" fill="#86EFAC"/>
  <rect x="85" y="167" width="85" height="2" rx="1" fill="#86EFAC"/>
  <rect x="85" y="172" width="88" height="2" rx="1" fill="#86EFAC"/>
  
  <rect x="80" y="190" width="100" height="30" rx="4" fill="#DCFCE7"/>
  <rect x="85" y="195" width="55" height="4" rx="2" fill="#16A34A"/>
  <rect x="85" y="202" width="90" height="2" rx="1" fill="#86EFAC"/>
  <rect x="85" y="207" width="85" height="2" rx="1" fill="#86EFAC"/>
  <rect x="85" y="212" width="88" height="2" rx="1" fill="#86EFAC"/>
  
  <!-- Border -->
  <rect x="0.5" y="0.5" width="199" height="279" stroke="#E2E8F0" fill="none"/>
</svg>
